<svg width="100%" height="100%" viewBox="0 0 2400 319" version="1.1" xmlns="http://www.w3.org/2000/svg" xmlns:xlink="http://www.w3.org/1999/xlink">
    <defs>
        <rect id="path-1" x="0" y="0" width="1440" height="195"></rect>
    </defs>
    <g id="Recipe-Page-Milk-Splatter" stroke="none" stroke-width="1" fill="none" fill-rule="evenodd">
        <path d="M0,190.5 C247.333333,232.166667 408,232.166667 482,190.5 C520.466145,168.841134 604.71676,191.883201 692,204 C745.753068,211.462087 887.419734,207.128754 1117,191 C1532.33333,114.333333 1800,78 1920,82 C2040,86 2200,102 2400,130 L2466,364 L-46,364 L0,190.5 Z" id="Path-6" stroke="#111111" stroke-width="1.5" fill="#FFF6ED"></path>
        <path d="M0,190.5 C247.333333,232.166667 408,232.166667 482,190.5 C520.466145,168.841134 604.71676,191.883201 692,204 C745.753068,211.462087 875.086401,211.462087 1080,204 C1520,118.666667 1800,78 1920,82 C2040,86 2200,102 2400,130" id="Path-6" stroke="#111111" stroke-width="1.5"></path>
        <g id="Group-55-Copy" transform="translate(480, 23)">
            <mask id="mask-2" fill="white">
                <use xlink:href="#path-1"></use>
            </mask>
            <g id="Mask"></g>
            <g mask="url(#mask-2)">
                <g transform="translate(741.0101, 1322.6579) rotate(-23) translate(-741.0101, -1322.6579)translate(-458.4537, -60.4881)">
                    <g id="Group-54" transform="translate(-0, 0)">
                        <path d="M1903.6327,289.754029 C1904.4691,286.487188 1903.72969,283.031123 1904.01908,279.665695 C1905.11147,266.805833 1920.86885,259.843652 1933.56922,262.147722 C1946.26879,264.451791 1957.38537,269.906915 1968.24839,278.887483 C1979.11141,287.868051 2016.86273,327.12778 2029.10674,333.406282 C2042.85183,340.456777 2058.33334,343.799978 2073.66856,345.681089 C2086.4206,347.244971 2088.99823,358.703175 2082.35627,363.409036 C2079.30481,365.569964 2074.93116,364.631006 2071.64198,366.40395 C2065.38403,369.774136 2068.04434,380.294981 2074.37863,383.51493 C2080.71848,386.732493 2094.79317,384.750831 2100.80638,384.714684 C2106.81959,384.678536 2116.26859,384.302895 2133.71645,388.159422 C2151.16432,392.015949 2353.17956,469.775546 2352.7352,478.704703 C2352.58622,481.246729 2062.08489,1230.63249 1481.23119,2726.86199 L46.1924695,2171.01089 L849.126539,76.5548506 C850.600241,76.1241693 880.239516,31.9150971 947.907491,40.5472745 C1015.02326,49.1090086 1119.97657,110.381097 1168.59232,141.658756 C1230.18034,181.282326 1285.65657,195.068046 1326.81551,173.659951 C1378.72726,146.658975 1458.54651,247.331201 1532.40062,243.352015 C1606.25473,239.372829 1621.17751,240.86857 1644.37117,250.771493 C1667.56483,260.674415 1676.13019,279.960613 1698.10096,285.31959 C1725.854,292.088941 1759.27595,277.728654 1776.76577,271.10437 C1798.1196,263.016416 1818.50127,272.726848 1826.15851,275.97736 C1843.72198,283.433081 1864.92977,300.863915 1884.35559,300.576945 C1892.29669,300.456115 1901.67368,297.445297 1903.6327,289.754029 Z" id="Fill-50" stroke="#232323" stroke-width="1.5" fill="#FFF6ED" transform="translate(1199.4638, 1383.146) rotate(2) translate(-1199.4638, -1383.146)"></path>
                    </g>
                    <g id="Group-2" transform="translate(1928.464, 261.6659)">
                        <path d="M11.800022,1.52434464 C6.97735903,-1.72072447 -0.733334934,0.20428887 0.0561987305,7.40544601 C0.799473719,14.1823578 11.07478,16.608307 14.3187676,10.4930548 C15.9107717,7.4919268 14.566526,3.38572118 11.800022,1.52434464" id="Fill-5" fill="#FFEBF5"></path>
                        <path d="M11.800022,1.52434464 C6.97735903,-1.72072447 -0.733334934,0.20428887 0.0561987305,7.40544601 C0.799473719,14.1823578 11.07478,16.608307 14.3187676,10.4930548 C15.9107717,7.4919268 14.566526,3.38572118 11.800022,1.52434464 Z" id="Stroke-7" stroke="#232323" stroke-width="1.5"></path>
                    </g>
                    <g id="Group-2" transform="translate(2142.0034, 384.1035) rotate(120) translate(-2142.0034, -384.1035)translate(2134.0631, 376.9762)">
                        <path d="M12.4926816,1.55206093 C7.38692905,-1.75201143 -0.776381594,0.208003338 0.0594975882,7.54009501 C0.846402717,14.4402275 11.7248681,16.9102864 15.1592773,10.6838441 C16.8447318,7.62814823 15.421579,3.44728182 12.4926816,1.55206093" id="Fill-5" fill="#FFEBF5"></path>
                        <path d="M12.4926816,1.55206093 C7.38692905,-1.75201143 -0.776381594,0.208003338 0.0594975882,7.54009501 C0.846402717,14.4402275 11.7248681,16.9102864 15.1592773,10.6838441 C16.8447318,7.62814823 15.421579,3.44728182 12.4926816,1.55206093 Z" id="Stroke-7" stroke="#232323" stroke-width="1.5"></path>
                    </g>
                </g>
            </g>
        </g>
    </g>
</svg>