<?xml version="1.0" encoding="UTF-8"?>
            <svg width="287px" height="173px" viewBox="0 0 287 173" version="1.1" xmlns="http://www.w3.org/2000/svg" xmlns:xlink="http://www.w3.org/1999/xlink">
                <title>Group</title>
                <defs>
                    <rect id="path-1" x="0" y="0" width="287" height="172"></rect>
                </defs>
                <g id="R8" stroke="none" stroke-width="1" fill="none" fill-rule="evenodd">
                    <g id="Artboard" transform="translate(-10, -2)">
                        <g id="Group" transform="translate(10, 2.4656)">
                            <mask id="mask-2" fill="white">
                                <use xlink:href="#path-1"></use>
                            </mask>
                            <g id="Mask"></g>
                            <g mask="url(#mask-2)">
                                <g transform="translate(-9.7333, 2)">
                                    <circle id="Oval" stroke="none" fill="#FFBA01" cx="153.600517" cy="161.068285" r="97.0669932"></circle>
                                    <path d="M61.8668748,158.407527 C61.8563567,209.854653 103.65591,251.685036 155.130376,251.73418 C206.643416,251.783238 248.499076,209.973898 248.534169,158.432077 C248.572716,106.89727 206.75563,65.0563659 155.218043,65.0668855 C103.64539,65.0774091 61.8773968,106.837648 61.8668748,158.407527 L61.8668748,158.407527 Z M42.0094106,263.242919 C42.3139027,262.759326 42.6218947,262.272228 42.9298867,261.785131 C47.315273,254.843115 51.0006774,247.571695 53.2931179,239.648476 C54.6370831,235.001776 55.4455621,230.270972 55.4315625,225.414014 C55.3965634,214.053078 51.0041773,204.717626 42.4154,197.341077 C37.4455289,193.072842 31.7441768,190.059145 25.6473349,187.763829 C18.9870076,185.258256 12.0921864,183.677817 5.05036903,182.707126 C3.45441042,182.486355 1.8584518,182.283106 0,182.037805 C17.73754,172.488591 28.8882508,158.201565 31.9821706,138.370739 C35.0760904,118.5294 28.8252525,101.551072 14.7381178,87.1519089 C16.1660808,87.4392614 17.4365478,87.6950752 18.7070149,87.9473847 C25.6018361,89.3245741 32.5526558,90.074494 39.5874734,89.8922705 C46.349298,89.7205598 52.9676264,88.7113218 59.267463,86.1496795 C71.8041379,81.0509248 79.2274454,71.7364989 81.7753793,58.4902497 C83.0143472,52.0598616 82.8393517,45.6014391 81.9153757,39.1500252 C80.9634004,32.5093791 79.1924463,26.078991 76.8930059,19.7852705 C76.7915086,19.5154395 76.7005109,19.2385999 76.6235129,18.9617603 C76.6025135,18.8951786 76.6550121,18.8075712 76.7145106,18.5868004 C77.2254973,19.0108205 77.6944851,19.3962934 78.1599731,19.7817662 C84.1553176,24.7368446 90.4691539,29.2223469 97.4164737,32.7581843 C102.351346,35.2707665 107.489212,37.2331738 112.97007,38.1898473 C120.396878,39.4829335 127.512193,38.7365179 134.106022,34.8117034 C138.393411,32.2605739 141.742824,28.7282408 144.479753,24.589664 C147.885165,19.4488578 150.121607,13.7929197 151.710566,7.8671506 C152.396548,5.30550824 152.946034,2.7088229 153.590017,0 C153.691514,0.301369689 153.803511,0.529149105 153.84901,0.767441417 C155.133477,7.48167774 156.998929,14.0101862 160.120848,20.1216832 C162.563784,24.9050509 165.657704,29.1873039 169.882094,32.5654479 C175.915938,37.3908672 182.831759,39.2446412 190.465061,38.6489105 C198.493852,38.0251453 205.749164,35.0745258 212.685984,31.20578 C218.64633,27.8837048 224.134188,23.8677785 229.373552,19.5084309 C229.751542,19.1965483 230.136532,18.8916743 230.749016,18.3940639 C230.560021,18.9897947 230.469023,19.3227031 230.350026,19.6486029 C228.145084,25.7495869 226.388129,31.9697171 225.401155,38.3930967 C224.204186,46.1796484 224.071189,53.9486786 226.132636,61.6230928 C229.534547,74.2806197 237.643837,82.5612776 249.89352,86.8855822 C255.531873,88.8795281 261.387221,89.7170555 267.344067,89.8887662 C275.596853,90.1270585 283.716642,89.0617517 291.759434,87.2780636 C291.91343,87.2430206 292.070926,87.2219949 292.476915,87.1484046 C278.354781,101.537055 272.138943,118.539912 275.208363,138.335696 C278.281283,158.145496 289.410995,172.450044 307.201033,182.030796 C305.909567,182.199003 304.866594,182.33567 303.827121,182.472338 C294.328367,183.705851 285.074607,185.857491 276.363333,189.971537 C270.451986,192.760959 265.114625,196.363378 260.753738,201.290422 C255.185382,207.584143 252.252458,214.957187 251.832469,223.349982 C251.457979,230.915763 253.085437,238.113593 255.748868,245.12219 C258.030808,251.12155 261.04773,256.745949 264.505641,262.139065 C264.747134,262.514025 264.978128,262.895993 265.359618,263.509246 C264.803133,263.337535 264.498641,263.263945 264.208148,263.151807 C258.73779,261.042219 253.130936,259.430242 247.328086,258.578697 C240.149772,257.520399 233.013457,257.611511 226.027638,259.777168 C215.905901,262.910011 208.741587,269.494588 204.058708,278.90363 C201.503774,284.044436 200.016313,289.511142 199.144836,295.163576 C198.325857,300.476093 198.18586,305.823653 198.371356,311.18523 C198.385355,311.598737 198.371356,312.012244 198.371356,312.534385 C197.846369,312.261049 197.741372,311.752926 197.524378,311.360445 C192.796,302.708331 186.538163,295.380842 178.628368,289.493621 C173.217508,285.467181 167.34816,282.348356 160.736832,280.820481 C158.846881,280.382444 156.907931,280.042527 154.975981,279.933894 C151.15058,279.720132 147.416177,280.37894 143.765772,281.538863 C136.776453,283.760588 130.662112,287.510188 125.121755,292.244495 C118.744921,297.69368 113.582554,304.138085 109.592658,311.525147 C109.421162,311.844038 109.228667,312.148912 108.843677,312.443273 C108.843677,312.141903 108.836678,311.840533 108.847177,311.539164 C109.106171,304.456976 108.75968,297.427353 107.177721,290.49585 C105.66226,283.865717 103.180824,277.666612 99.022932,272.220932 C93.4090776,264.861905 85.9787703,260.453497 76.9350048,258.732887 C69.3927004,257.29262 61.9133944,257.909376 54.486587,259.601953 C50.6821857,260.467514 46.9722819,261.648463 43.3218765,263.018644 C42.9403864,263.158816 42.5588963,263.291979 42.1774062,263.428647 L42.0094106,263.242919 Z" id="Fill-11" stroke="#111111" stroke-width="1.5" fill="#FFBA00"></path>
                                </g>
                            </g>
                        </g>
                    </g>
                </g>
            </svg>